<?xml version="1.0" encoding="utf-8"?>
<!-- Generator: Adobe Illustrator 18.0.0, SVG Export Plug-In . SVG Version: 6.00 Build 0)  -->
<!DOCTYPE svg PUBLIC "-//W3C//DTD SVG 1.1//EN" "http://www.w3.org/Graphics/SVG/1.1/DTD/svg11.dtd">
<svg version="1.1" id="Layer_1" xmlns="http://www.w3.org/2000/svg" xmlns:xlink="http://www.w3.org/1999/xlink" x="0px" y="0px"
	 viewBox="0 0 595.3 841.9" enable-background="new 0 0 595.3 841.9" xml:space="preserve">
<g>
	<polygon fill="#020303" points="350.2,313 379.4,320.3 408.6,313 408.6,320.3 379.4,327.6 350.2,320.3 	"/>
	<polygon fill="#020303" points="350.2,327.6 379.4,334.9 408.6,327.6 408.6,334.9 379.4,342.2 350.2,334.9 	"/>
	<polygon fill="#020303" points="350.2,298.4 379.4,291 408.6,298.4 408.6,305.7 379.4,313 350.2,305.7 	"/>
</g>
<g>
	<g>
		<path fill="#FFFFFF" stroke="#FFFFFF" stroke-width="2" stroke-miterlimit="10" d="M402,331.3L402,331.3c-0.5,0.2-1.1,0.1-1.5-0.1
			l-11.8-6c-1.5,1.7-3.5,2.9-5.7,3.6c-3.4,1.1-6.9,0.8-10.1-0.8c-3.1-1.6-5.5-4.3-6.6-7.7s-0.8-6.9,0.8-10.1
			c1.6-3.1,4.3-5.5,7.7-6.6c3.4-1.1,6.9-0.8,10.1,0.8c3.1,1.6,5.5,4.3,6.6,7.7c0.7,2.2,0.8,4.5,0.4,6.7l11.8,6
			c1,0.5,1.4,1.9,0.8,3.1l-1.1,2.1C403.1,330.7,402.6,331.1,402,331.3z M376.6,309.1c-3.9,1.3-6.1,5.5-4.8,9.4
			c1.3,3.9,5.5,6.1,9.4,4.8s6.1-5.5,4.8-9.4C384.8,310,380.5,307.9,376.6,309.1z"/>
	</g>
	<path fill="#010202" d="M381.4,324.5c-4.6,1.5-9.5-1-11-5.6c-1.5-4.6,1-9.5,5.6-11c4.6-1.5,9.5,1,11,5.6
		C388.5,318.1,386,323,381.4,324.5z M402.9,325.9l-12.7-6.5c0.6-2.3,0.6-4.7-0.1-6.9c-1-3-3.1-5.5-5.9-7c-2.8-1.5-6.1-1.7-9.1-0.7
		c-3,1-5.5,3.1-7,5.9c-1.5,2.8-1.7,6.1-0.7,9.1c1,3,3.1,5.5,5.9,7c2.8,1.5,6.1,1.7,9.1,0.7c2.3-0.7,4.3-2.1,5.8-4l12.7,6.5
		c0.4,0.2,1,0,1.3-0.6l1.1-2.1C403.5,326.7,403.4,326.1,402.9,325.9z"/>
</g>
</svg>
